<?xml version="1.0" encoding="UTF-8"?>
<svg width="111px" height="85px" viewBox="0 0 111 85" version="1.1" xmlns="http://www.w3.org/2000/svg" xmlns:xlink="http://www.w3.org/1999/xlink">
    <!-- Generator: Sketch 49.3 (51167) - http://www.bohemiancoding.com/sketch -->
    <title>Group</title>
    <desc>Created with Sketch.</desc>
    <defs></defs>
    <g id="Page-1" stroke="none" stroke-width="1" fill="none" fill-rule="evenodd">
        <g id="Artboard-Copy-2" transform="translate(-38.000000, -19.000000)" fill="#000000">
            <g id="Group" transform="translate(36.000000, 13.000000)">
                <path d="M56,35 L112,35 L112,91 L56,91 L56,35 Z M58,89 L74,89 L74,67 L70,67 L70,37 L58,37 L58,89 Z M76,89 L92,89 L92,67 L88,67 L88,37 L80,37 L80,67 L76,67 L76,89 Z M56,91 L2,91 L2,35 L56,35 L56,91 Z M46,89 L46,75 L14,75 L14,89 L46,89 Z M46,37 L14,37 L14,51 L46,51 L46,37 Z M46,73 L46,53 L14,53 L14,73 L46,73 Z M94,89 L110,89 L110,37 L98,37 L98,67 L94,67 L94,89 Z M50,44 C50,45.1045695 50.8954305,46 52,46 C53.1045695,46 54,45.1045695 54,44 C54,42.8954305 53.1045695,42 52,42 C50.8954305,42 50,42.8954305 50,44 Z M50,63 C50,64.1045695 50.8954305,65 52,65 C53.1045695,65 54,64.1045695 54,63 C54,61.8954305 53.1045695,61 52,61 C50.8954305,61 50,61.8954305 50,63 Z M50,82 C50,83.1045695 50.8954305,84 52,84 C53.1045695,84 54,83.1045695 54,82 C54,80.8954305 53.1045695,80 52,80 C50.8954305,80 50,80.8954305 50,82 Z M6,82 C6,83.1045695 6.8954305,84 8,84 C9.1045695,84 10,83.1045695 10,82 C10,80.8954305 9.1045695,80 8,80 C6.8954305,80 6,80.8954305 6,82 Z M6,63 C6,64.1045695 6.8954305,65 8,65 C9.1045695,65 10,64.1045695 10,63 C10,61.8954305 9.1045695,61 8,61 C6.8954305,61 6,61.8954305 6,63 Z M6,44 C6,45.1045695 6.8954305,46 8,46 C9.1045695,46 10,45.1045695 10,44 C10,42.8954305 9.1045695,42 8,42 C6.8954305,42 6,42.8954305 6,44 Z" id="Combined-Shape-Copy-4" fill-rule="nonzero"></path>
                <text id="VidChord-Copy-8" font-family="FuturaPT-HeavyObl, Futura PT" font-size="25" font-style="italic" font-weight="600" letter-spacing="0.709359527">
                    <tspan x="0.287561893" y="25">VidChord</tspan>
                </text>
            </g>
        </g>
    </g>
</svg>