<?xml version="1.0" encoding="UTF-8"?>
<svg width="111px" height="85px" viewBox="0 0 111 85" version="1.1" xmlns="http://www.w3.org/2000/svg" xmlns:xlink="http://www.w3.org/1999/xlink">
    <!-- Generator: Sketch 63.1 (92452) - https://sketch.com -->
    <title>Combined Shape</title>
    <desc>Created with Sketch.</desc>
    <g id="Page-1" stroke="none" stroke-width="1" fill="none" fill-rule="evenodd">
        <g id="Comp" transform="translate(-38.000000, -19.000000)" fill="#000000" fill-rule="nonzero">
            <path d="M148,48 L148,104 L38,104 L38,48 L148,48 Z M106,50 L94,50 L94,102 L110,102 L110,80 L106,80 L106,50 Z M124,50 L116,50 L116,80 L112,80 L112,102 L128,102 L128,80 L124,80 L124,50 Z M82,88 L50,88 L50,102 L82,102 L82,88 Z M146,50 L134,50 L134,80 L130,80 L130,102 L146,102 L146,50 Z M88,93 C86.8954305,93 86,93.8954305 86,95 C86,96.1045695 86.8954305,97 88,97 C89.1045695,97 90,96.1045695 90,95 C90,93.8954305 89.1045695,93 88,93 Z M44,93 C42.8954305,93 42,93.8954305 42,95 C42,96.1045695 42.8954305,97 44,97 C45.1045695,97 46,96.1045695 46,95 C46,93.8954305 45.1045695,93 44,93 Z M82,66 L50,66 L50,86 L82,86 L82,66 Z M88,74 C86.8954305,74 86,74.8954305 86,76 C86,77.1045695 86.8954305,78 88,78 C89.1045695,78 90,77.1045695 90,76 C90,74.8954305 89.1045695,74 88,74 Z M44,74 C42.8954305,74 42,74.8954305 42,76 C42,77.1045695 42.8954305,78 44,78 C45.1045695,78 46,77.1045695 46,76 C46,74.8954305 45.1045695,74 44,74 Z M82,50 L50,50 L50,64 L82,64 L82,50 Z M88,55 C86.8954305,55 86,55.8954305 86,57 C86,58.1045695 86.8954305,59 88,59 C89.1045695,59 90,58.1045695 90,57 C90,55.8954305 89.1045695,55 88,55 Z M44,55 C42.8954305,55 42,55.8954305 42,57 C42,58.1045695 42.8954305,59 44,59 C45.1045695,59 46,58.1045695 46,57 C46,55.8954305 45.1045695,55 44,55 Z M76.7062809,19.775 L74.4562809,38 L70.8812809,38 L71.0812809,36.725 C70.6312809,37.375 70.0812809,37.75 69.6062809,37.975 C68.8312809,38.35 67.9062809,38.375 67.4562809,38.375 C66.1062809,38.375 65.0062809,38 64.0812809,37.1 C63.1812809,36.2 62.5562809,34.825 62.5562809,33.05 C62.5562809,31.225 63.1812809,29.35 64.4812809,28.05 C65.6562809,26.875 67.0812809,26.475 68.4812809,26.475 C69.3062809,26.475 70.8812809,26.675 72.0812809,28.2 L73.1062809,19.775 L76.7062809,19.775 Z M148.603079,19.775 L146.353079,38 L142.778079,38 L142.978079,36.725 C142.528079,37.375 141.978079,37.75 141.503079,37.975 C140.728079,38.35 139.803079,38.375 139.353079,38.375 C138.003079,38.375 136.903079,38 135.978079,37.1 C135.078079,36.2 134.453079,34.825 134.453079,33.05 C134.453079,31.225 135.078079,29.35 136.378079,28.05 C137.553079,26.875 138.978079,26.475 140.378079,26.475 C141.203079,26.475 142.778079,26.675 143.978079,28.2 L145.003079,19.775 L148.603079,19.775 Z M88.1406405,20.95 C90.7156405,20.95 92.2656405,21.8 92.8656405,22.15 L92.3906405,26.225 C91.7156405,25.55 90.4406405,24.55 88.2156405,24.55 C86.6156405,24.55 85.3156405,24.975 84.2656405,26.125 C83.2406405,27.225 82.7656405,28.725 82.7656405,30.05 C82.7656405,31.45 83.3156405,32.725 84.0656405,33.475 C84.8156405,34.225 86.0656405,34.775 87.5906405,34.775 C89.2406405,34.775 90.5656405,34.075 91.4906405,33.325 L90.9906405,37.475 C90.4406405,37.75 89.0906405,38.375 86.9406405,38.375 C83.7906405,38.375 81.9656405,37.025 81.0656405,36.15 C79.9906405,35.075 78.8156405,33.275 78.8156405,30.375 C78.8156405,27.475 79.9156405,25.1 81.4656405,23.55 C82.8656405,22.15 85.0906405,20.95 88.1406405,20.95 Z M115.55936,26.475 C117.35936,26.475 119.13436,27.1 120.23436,28.2 C121.08436,29.05 121.73436,30.35 121.73436,31.975 C121.73436,33.6 121.10936,35.35 119.93436,36.55 C118.35936,38.15 116.43436,38.375 114.80936,38.375 C113.38436,38.375 111.58436,38.175 110.15936,36.7 C109.28436,35.8 108.63436,34.425 108.63436,32.775 C108.63436,31.15 109.23436,29.525 110.43436,28.375 C111.65936,27.175 113.50936,26.475 115.55936,26.475 Z M42.3625619,21.325 L45.2875619,32 L50.8125619,21.325 L55.1125619,21.325 L46.0125619,38 L43.3625619,38 L38.3625619,21.325 L42.3625619,21.325 Z M100,19.775 L98.95,28.075 C99.45,27.55 99.95,27.225 100.325,27.025 C101.125,26.6 101.775,26.55 102.6,26.55 C103.475,26.55 104.575,26.675 105.425,27.5 C106.3,28.35 106.375,29.475 106.375,30.15 C106.375,30.525 106.35,31.075 106.2,32.275 L105.525,38 L101.925,38 L102.525,33.175 C102.675,32.025 102.675,31.55 102.675,31.375 C102.675,30.95 102.6,30.425 102.225,30.025 C101.825,29.625 101.275,29.55 100.95,29.55 C100.3,29.55 99.75,29.675 99.275,30.15 C98.625,30.8 98.475,31.9 98.4,32.5 L97.75,38 L94.15,38 L96.4,19.775 L100,19.775 Z M131.968719,26.575 C132.568719,26.575 133.068719,26.65 133.443719,26.75 L132.743719,30.1 C132.393719,29.925 131.868719,29.725 131.168719,29.725 C130.268719,29.725 129.668719,30.075 129.318719,30.4 C128.693719,31 128.393719,32.05 128.243719,33.25 L127.643719,38 L124.043719,38 L125.418719,26.85 L129.018719,26.85 L128.693719,28.5 C129.043719,27.8 129.568719,27.325 130.093719,27.025 C130.793719,26.65 131.568719,26.575 131.968719,26.575 Z M60.0469214,26.85 L58.6719214,38 L55.0719214,38 L56.4469214,26.85 L60.0469214,26.85 Z M115.33436,29.525 C114.65936,29.525 113.90936,29.775 113.33436,30.3 C112.65936,30.9 112.33436,31.825 112.33436,32.675 C112.33436,33.45 112.63436,34.125 113.05936,34.575 C113.40936,34.95 114.03436,35.325 115.00936,35.325 C115.90936,35.325 116.63436,34.975 117.10936,34.525 C117.73436,33.925 118.03436,33 118.03436,32.15 C118.03436,31.3 117.70936,30.625 117.28436,30.225 C116.80936,29.775 116.00936,29.525 115.33436,29.525 Z M141.103079,29.575 C140.053079,29.575 139.403079,30.05 139.053079,30.4 C138.503079,30.95 138.153079,31.75 138.153079,32.675 C138.153079,33.65 138.553079,34.25 138.928079,34.6 C139.278079,34.95 139.878079,35.275 140.778079,35.275 C141.728079,35.275 142.428079,34.875 142.853079,34.425 C143.403079,33.85 143.728079,32.9 143.728079,32.125 C143.728079,31.25 143.328079,30.65 143.003079,30.325 C142.653079,29.975 142.028079,29.575 141.103079,29.575 Z M69.2062809,29.575 C68.1562809,29.575 67.5062809,30.05 67.1562809,30.4 C66.6062809,30.95 66.2562809,31.75 66.2562809,32.675 C66.2562809,33.65 66.6562809,34.25 67.0312809,34.6 C67.3812809,34.95 67.9812809,35.275 68.8812809,35.275 C69.8312809,35.275 70.5312809,34.875 70.9562809,34.425 C71.5062809,33.85 71.8312809,32.9 71.8312809,32.125 C71.8312809,31.25 71.4312809,30.65 71.1062809,30.325 C70.7562809,29.975 70.1312809,29.575 69.2062809,29.575 Z M58.7219214,20 C59.8969214,20 60.8219214,20.925 60.8219214,22.1 C60.8219214,23.275 59.8969214,24.2 58.7219214,24.2 C57.5469214,24.2 56.6219214,23.275 56.6219214,22.1 C56.6219214,20.925 57.5469214,20 58.7219214,20 Z" id="Combined-Shape"></path>
        </g>
    </g>
</svg>